<?xml version="1.0" encoding="UTF-8" standalone="no"?>
<svg width="38px" height="47px" viewBox="0 0 38 47" version="1.1" xmlns="http://www.w3.org/2000/svg" xmlns:xlink="http://www.w3.org/1999/xlink" xmlns:sketch="http://www.bohemiancoding.com/sketch/ns">
    <!-- Generator: Sketch 3.4.4 (17249) - http://www.bohemiancoding.com/sketch -->
    <title>logo-color</title>
    <desc>Created with Sketch.</desc>
    <defs>
        <path d="M15.5816592,25.9938671 C14.8480297,26.0370218 14.1036227,26.0532045 13.3484159,26.0424159 C12.593209,26.0316272 11.8380135,25.9938674 11.0828067,25.9291354 L11.0828067,38.8107417 C11.0828067,40.0190726 11.066624,41.0547693 11.0342579,41.9178628 C11.0018919,42.7809563 10.9425552,43.4929978 10.8562458,44.0540085 L15.6463908,43.7950818 L15.6463908,46.7080078 L0.72573635,46.7080078 L0.72573635,44.5071304 C1.97722194,44.4639757 2.91582206,44.2374171 3.54156486,43.8274476 C4.16730765,43.4174782 4.60963644,42.8564758 4.8685645,42.1444237 C5.12749255,41.4323716 5.26234889,40.5854737 5.27313756,39.6037049 C5.28392623,38.621936 5.28932048,37.5484795 5.28932048,36.3833033 L5.28932048,7.73953057 C5.28932048,6.83328238 5.30550324,5.97559607 5.33786925,5.1664459 C5.37023525,4.35729573 5.42957204,3.618283 5.51588139,2.94938553 L0.72573635,3.24067813 L0.72573635,0.295386246 C3.22870754,0.25223157 5.74242969,0.219866049 8.26697821,0.198288711 C10.7915267,0.176711373 13.3376144,0.18749988 15.9053176,0.230654556 C19.0987636,0.295386569 21.8336501,0.602859021 24.1100593,1.15308114 C26.3864684,1.70330325 28.2528802,2.48547001 29.7093505,3.49960489 C31.1658208,4.51373977 32.233883,5.74362957 32.9135691,7.18931121 C33.5932552,8.63499284 33.9330932,10.2748459 33.9330932,12.1089196 C33.9330932,13.4035599 33.7604771,14.725152 33.4152397,16.0737356 C33.0700023,17.4223192 32.4334804,18.7007573 31.5056548,19.9090883 C30.5778293,21.1174192 29.3101797,22.1962699 27.7026681,23.1456727 C26.0951564,24.0950756 24.0291573,24.8286941 21.5046088,25.3465502 C22.3677023,25.972293 23.1444748,26.7706425 23.8349496,27.7416227 C24.5254244,28.7126029 25.2806199,29.8453962 26.1005587,31.1400364 L30.631777,38.2281565 C31.1927878,39.1128273 31.7322132,39.9381481 32.2500693,40.7041436 C32.7679254,41.4701391 33.334322,42.1336323 33.9492761,42.6946431 C34.5642303,43.2556538 35.2546947,43.6979826 36.0206902,44.0216427 C36.7866857,44.3453028 37.687526,44.5071304 38.7232383,44.5071304 L38.7232383,46.7080078 L30.3728503,46.7080078 C29.7255301,46.146997 29.1429508,45.5859947 28.6250947,45.0249839 C28.1072385,44.4639731 27.6163615,43.8813937 27.1524487,43.2772283 C26.6885359,42.6730628 26.2408129,42.0527237 25.8092661,41.4161922 C25.3777194,40.7796607 24.9246021,40.0945905 24.4499007,39.360961 L20.0157799,32.272841 C19.7136972,31.7981396 19.4008305,31.2856855 19.0771704,30.7354634 C18.7535103,30.1852413 18.4082781,29.6296331 18.0414634,29.0686224 C17.6746486,28.5076116 17.2862624,27.962792 16.876293,27.4341472 C16.4663235,26.9055024 16.0347833,26.4254139 15.5816592,25.9938671 L15.5816592,25.9938671 Z M11.0828067,23.4045995 C11.7732815,23.4477542 12.4367747,23.485514 13.0733062,23.51788 C13.7098376,23.550246 14.4164849,23.5448517 15.193269,23.501697 C17.0057654,23.436965 18.6618012,23.2050121 20.1614262,22.8058314 C21.6610512,22.4066506 22.955672,21.7863115 24.0453276,20.9447953 C25.1349832,20.1032791 25.981881,19.0190342 26.5860464,17.6920279 C27.1902119,16.3650216 27.4922901,14.7413513 27.4922901,12.8209682 C27.4922901,9.4980582 26.5375072,6.9897303 24.6279128,5.29590928 C22.7183184,3.60208826 19.7245077,2.75519046 15.6463908,2.75519046 C14.3949053,2.75519046 13.4563051,2.94398933 12.8305623,3.32159274 C12.2048195,3.69919616 11.7624908,4.23322726 11.5035627,4.92370207 C11.2446346,5.61417688 11.1097783,6.44489192 11.0989896,7.41587212 C11.088201,8.38685232 11.0828067,9.46570303 11.0828067,10.6524566 L11.0828067,23.4045995 Z" id="path-1"></path>
    </defs>
    <g id="Page-1" stroke="none" stroke-width="1" fill="none" fill-rule="evenodd" sketch:type="MSPage">
        <g id="logo-color" sketch:type="MSArtboardGroup">
            <g id="R" sketch:type="MSLayerGroup" transform="translate(-1.000000, 0.000000)">
                <mask id="mask-2" sketch:name="Mask" fill="white">
                    <use xlink:href="#path-1"></use>
                </mask>
                <use id="Mask" fill="#50E3C2" sketch:type="MSShapeGroup" xlink:href="#path-1"></use>
            </g>
        </g>
    </g>
</svg>